<svg width="30" height="24" viewBox="0 0 30 24" fill="none" xmlns="http://www.w3.org/2000/svg">
<path d="M14.5778 3.86844L14.9997 4.53131L15.4215 3.86844C16.7293 1.8134 19.0364 0.5 21.6663 0.5C25.7902 0.5 29.1663 3.87614 29.1663 8C29.1663 9.84956 28.316 11.7459 26.9715 13.5793C25.6308 15.4075 23.8323 17.1272 22.0164 18.613C20.2029 20.0968 18.3869 21.3352 17.0229 22.2032C16.3414 22.6369 15.7739 22.9773 15.3776 23.2089C15.2257 23.2977 15.099 23.3705 15.0006 23.4264C14.9022 23.37 14.7753 23.2966 14.6231 23.207C14.2267 22.9737 13.6592 22.6308 12.9776 22.1945C11.6134 21.3213 9.79721 20.0765 7.98349 18.5885C6.16728 17.0983 4.36853 15.3763 3.02764 13.5509C1.68266 11.7199 0.833008 9.83208 0.833008 8C0.833008 3.87614 4.20915 0.5 8.33301 0.5C10.9629 0.5 13.2701 1.8134 14.5778 3.86844Z" fill="#F44336" stroke="black"/>
</svg>
